<mxfile host="app.diagrams.net" agent="Mozilla/5.0 (Macintosh; Intel Mac OS X 10_15_7) AppleWebKit/537.36 (KHTML, like Gecko) Chrome/134.0.0.0 Safari/537.36" version="26.1.0">
  <diagram name="Page-1" id="jbSKQiZQvPInBLx6xNWo">
    <mxGraphModel dx="2232" dy="1152" grid="1" gridSize="10" guides="1" tooltips="1" connect="1" arrows="1" fold="1" page="1" pageScale="1" pageWidth="850" pageHeight="1100" math="0" shadow="0">
      <root>
        <mxCell id="0" />
        <mxCell id="1" parent="0" />
        <mxCell id="mbCBkdH2v-9OL00bYeM--1" value="" style="rounded=0;whiteSpace=wrap;html=1;" vertex="1" parent="1">
          <mxGeometry x="140" y="60" width="580" height="710" as="geometry" />
        </mxCell>
        <mxCell id="mbCBkdH2v-9OL00bYeM--22" style="edgeStyle=orthogonalEdgeStyle;rounded=0;orthogonalLoop=1;jettySize=auto;html=1;entryX=0;entryY=0.5;entryDx=0;entryDy=0;" edge="1" parent="1" source="mbCBkdH2v-9OL00bYeM--2" target="mbCBkdH2v-9OL00bYeM--5">
          <mxGeometry relative="1" as="geometry" />
        </mxCell>
        <mxCell id="mbCBkdH2v-9OL00bYeM--23" style="edgeStyle=orthogonalEdgeStyle;rounded=0;orthogonalLoop=1;jettySize=auto;html=1;entryX=0;entryY=0.5;entryDx=0;entryDy=0;" edge="1" parent="1" source="mbCBkdH2v-9OL00bYeM--2" target="mbCBkdH2v-9OL00bYeM--11">
          <mxGeometry relative="1" as="geometry" />
        </mxCell>
        <mxCell id="mbCBkdH2v-9OL00bYeM--24" style="edgeStyle=orthogonalEdgeStyle;rounded=0;orthogonalLoop=1;jettySize=auto;html=1;" edge="1" parent="1" source="mbCBkdH2v-9OL00bYeM--2" target="mbCBkdH2v-9OL00bYeM--6">
          <mxGeometry relative="1" as="geometry" />
        </mxCell>
        <mxCell id="mbCBkdH2v-9OL00bYeM--25" style="edgeStyle=orthogonalEdgeStyle;rounded=0;orthogonalLoop=1;jettySize=auto;html=1;" edge="1" parent="1" source="mbCBkdH2v-9OL00bYeM--2" target="mbCBkdH2v-9OL00bYeM--7">
          <mxGeometry relative="1" as="geometry" />
        </mxCell>
        <mxCell id="mbCBkdH2v-9OL00bYeM--26" style="edgeStyle=orthogonalEdgeStyle;rounded=0;orthogonalLoop=1;jettySize=auto;html=1;" edge="1" parent="1" source="mbCBkdH2v-9OL00bYeM--2" target="mbCBkdH2v-9OL00bYeM--4">
          <mxGeometry relative="1" as="geometry" />
        </mxCell>
        <mxCell id="mbCBkdH2v-9OL00bYeM--27" style="edgeStyle=orthogonalEdgeStyle;rounded=0;orthogonalLoop=1;jettySize=auto;html=1;" edge="1" parent="1" source="mbCBkdH2v-9OL00bYeM--2" target="mbCBkdH2v-9OL00bYeM--13">
          <mxGeometry relative="1" as="geometry" />
        </mxCell>
        <mxCell id="mbCBkdH2v-9OL00bYeM--28" style="edgeStyle=orthogonalEdgeStyle;rounded=0;orthogonalLoop=1;jettySize=auto;html=1;" edge="1" parent="1" source="mbCBkdH2v-9OL00bYeM--2" target="mbCBkdH2v-9OL00bYeM--15">
          <mxGeometry relative="1" as="geometry" />
        </mxCell>
        <mxCell id="mbCBkdH2v-9OL00bYeM--29" style="edgeStyle=orthogonalEdgeStyle;rounded=0;orthogonalLoop=1;jettySize=auto;html=1;" edge="1" parent="1" source="mbCBkdH2v-9OL00bYeM--2" target="mbCBkdH2v-9OL00bYeM--19">
          <mxGeometry relative="1" as="geometry" />
        </mxCell>
        <mxCell id="mbCBkdH2v-9OL00bYeM--30" style="edgeStyle=orthogonalEdgeStyle;rounded=0;orthogonalLoop=1;jettySize=auto;html=1;" edge="1" parent="1" source="mbCBkdH2v-9OL00bYeM--2" target="mbCBkdH2v-9OL00bYeM--16">
          <mxGeometry relative="1" as="geometry" />
        </mxCell>
        <mxCell id="mbCBkdH2v-9OL00bYeM--31" style="edgeStyle=orthogonalEdgeStyle;rounded=0;orthogonalLoop=1;jettySize=auto;html=1;" edge="1" parent="1" source="mbCBkdH2v-9OL00bYeM--2" target="mbCBkdH2v-9OL00bYeM--18">
          <mxGeometry relative="1" as="geometry" />
        </mxCell>
        <mxCell id="mbCBkdH2v-9OL00bYeM--32" style="edgeStyle=orthogonalEdgeStyle;rounded=0;orthogonalLoop=1;jettySize=auto;html=1;" edge="1" parent="1" source="mbCBkdH2v-9OL00bYeM--2" target="mbCBkdH2v-9OL00bYeM--17">
          <mxGeometry relative="1" as="geometry" />
        </mxCell>
        <mxCell id="mbCBkdH2v-9OL00bYeM--2" value="User&lt;div&gt;&lt;br&gt;&lt;/div&gt;" style="shape=umlActor;verticalLabelPosition=bottom;verticalAlign=top;html=1;outlineConnect=0;" vertex="1" parent="1">
          <mxGeometry x="60" y="90" width="30" height="60" as="geometry" />
        </mxCell>
        <mxCell id="mbCBkdH2v-9OL00bYeM--37" style="edgeStyle=orthogonalEdgeStyle;rounded=0;orthogonalLoop=1;jettySize=auto;html=1;" edge="1" parent="1" source="mbCBkdH2v-9OL00bYeM--3" target="mbCBkdH2v-9OL00bYeM--14">
          <mxGeometry relative="1" as="geometry" />
        </mxCell>
        <mxCell id="mbCBkdH2v-9OL00bYeM--38" style="edgeStyle=orthogonalEdgeStyle;rounded=0;orthogonalLoop=1;jettySize=auto;html=1;" edge="1" parent="1" source="mbCBkdH2v-9OL00bYeM--3" target="mbCBkdH2v-9OL00bYeM--10">
          <mxGeometry relative="1" as="geometry" />
        </mxCell>
        <mxCell id="mbCBkdH2v-9OL00bYeM--39" style="edgeStyle=orthogonalEdgeStyle;rounded=0;orthogonalLoop=1;jettySize=auto;html=1;" edge="1" parent="1" source="mbCBkdH2v-9OL00bYeM--3" target="mbCBkdH2v-9OL00bYeM--9">
          <mxGeometry relative="1" as="geometry" />
        </mxCell>
        <mxCell id="mbCBkdH2v-9OL00bYeM--40" style="edgeStyle=orthogonalEdgeStyle;rounded=0;orthogonalLoop=1;jettySize=auto;html=1;entryX=0.5;entryY=1;entryDx=0;entryDy=0;" edge="1" parent="1" source="mbCBkdH2v-9OL00bYeM--3" target="mbCBkdH2v-9OL00bYeM--4">
          <mxGeometry relative="1" as="geometry" />
        </mxCell>
        <mxCell id="mbCBkdH2v-9OL00bYeM--57" style="edgeStyle=orthogonalEdgeStyle;rounded=0;orthogonalLoop=1;jettySize=auto;html=1;" edge="1" parent="1" source="mbCBkdH2v-9OL00bYeM--3" target="mbCBkdH2v-9OL00bYeM--56">
          <mxGeometry relative="1" as="geometry" />
        </mxCell>
        <mxCell id="mbCBkdH2v-9OL00bYeM--3" value="Admin&lt;div&gt;&lt;br&gt;&lt;/div&gt;" style="shape=umlActor;verticalLabelPosition=bottom;verticalAlign=top;html=1;outlineConnect=0;" vertex="1" parent="1">
          <mxGeometry x="60" y="560" width="30" height="60" as="geometry" />
        </mxCell>
        <mxCell id="mbCBkdH2v-9OL00bYeM--4" value="Login" style="ellipse;whiteSpace=wrap;html=1;" vertex="1" parent="1">
          <mxGeometry x="380" y="340" width="100" height="60" as="geometry" />
        </mxCell>
        <mxCell id="mbCBkdH2v-9OL00bYeM--5" value="Backgrund Removal" style="ellipse;whiteSpace=wrap;html=1;" vertex="1" parent="1">
          <mxGeometry x="375" y="100" width="105" height="50" as="geometry" />
        </mxCell>
        <mxCell id="mbCBkdH2v-9OL00bYeM--6" value="Crop/Flip/Resize" style="ellipse;whiteSpace=wrap;html=1;" vertex="1" parent="1">
          <mxGeometry x="380" y="170" width="100" height="60" as="geometry" />
        </mxCell>
        <mxCell id="mbCBkdH2v-9OL00bYeM--7" value="Signup" style="ellipse;whiteSpace=wrap;html=1;" vertex="1" parent="1">
          <mxGeometry x="380" y="260" width="100" height="60" as="geometry" />
        </mxCell>
        <mxCell id="mbCBkdH2v-9OL00bYeM--9" value="User Management" style="ellipse;whiteSpace=wrap;html=1;" vertex="1" parent="1">
          <mxGeometry x="540" y="420" width="100" height="60" as="geometry" />
        </mxCell>
        <mxCell id="mbCBkdH2v-9OL00bYeM--10" value="Create Stickers" style="ellipse;whiteSpace=wrap;html=1;" vertex="1" parent="1">
          <mxGeometry x="440" y="500" width="100" height="60" as="geometry" />
        </mxCell>
        <mxCell id="mbCBkdH2v-9OL00bYeM--11" value="Brand Kit" style="ellipse;whiteSpace=wrap;html=1;" vertex="1" parent="1">
          <mxGeometry x="250" y="170" width="100" height="60" as="geometry" />
        </mxCell>
        <mxCell id="mbCBkdH2v-9OL00bYeM--13" value="Change Background" style="ellipse;whiteSpace=wrap;html=1;" vertex="1" parent="1">
          <mxGeometry x="250" y="260" width="100" height="60" as="geometry" />
        </mxCell>
        <mxCell id="mbCBkdH2v-9OL00bYeM--14" value="Create Templates" style="ellipse;whiteSpace=wrap;html=1;" vertex="1" parent="1">
          <mxGeometry x="470" y="570" width="100" height="60" as="geometry" />
        </mxCell>
        <mxCell id="mbCBkdH2v-9OL00bYeM--15" value="Save Template State" style="ellipse;whiteSpace=wrap;html=1;" vertex="1" parent="1">
          <mxGeometry x="250" y="340" width="100" height="60" as="geometry" />
        </mxCell>
        <mxCell id="mbCBkdH2v-9OL00bYeM--16" value="Image Background Generation" style="ellipse;whiteSpace=wrap;html=1;" vertex="1" parent="1">
          <mxGeometry x="520" y="170" width="100" height="60" as="geometry" />
        </mxCell>
        <mxCell id="mbCBkdH2v-9OL00bYeM--17" value="AI shadow Retightening/&lt;div&gt;Shadow&lt;/div&gt;" style="ellipse;whiteSpace=wrap;html=1;" vertex="1" parent="1">
          <mxGeometry x="520" y="260" width="100" height="60" as="geometry" />
        </mxCell>
        <mxCell id="mbCBkdH2v-9OL00bYeM--18" value="Image Export Sharing" style="ellipse;whiteSpace=wrap;html=1;" vertex="1" parent="1">
          <mxGeometry x="520" y="340" width="100" height="60" as="geometry" />
        </mxCell>
        <mxCell id="mbCBkdH2v-9OL00bYeM--19" value="Change Font/Customise" style="ellipse;whiteSpace=wrap;html=1;" vertex="1" parent="1">
          <mxGeometry x="250" y="420" width="100" height="60" as="geometry" />
        </mxCell>
        <mxCell id="mbCBkdH2v-9OL00bYeM--33" style="edgeStyle=orthogonalEdgeStyle;rounded=0;orthogonalLoop=1;jettySize=auto;html=1;" edge="1" parent="1" source="mbCBkdH2v-9OL00bYeM--21" target="mbCBkdH2v-9OL00bYeM--5">
          <mxGeometry relative="1" as="geometry" />
        </mxCell>
        <mxCell id="mbCBkdH2v-9OL00bYeM--34" style="edgeStyle=orthogonalEdgeStyle;rounded=0;orthogonalLoop=1;jettySize=auto;html=1;entryX=1;entryY=0.5;entryDx=0;entryDy=0;" edge="1" parent="1" source="mbCBkdH2v-9OL00bYeM--21" target="mbCBkdH2v-9OL00bYeM--16">
          <mxGeometry relative="1" as="geometry" />
        </mxCell>
        <mxCell id="mbCBkdH2v-9OL00bYeM--35" style="edgeStyle=orthogonalEdgeStyle;rounded=0;orthogonalLoop=1;jettySize=auto;html=1;entryX=1;entryY=0.5;entryDx=0;entryDy=0;" edge="1" parent="1" source="mbCBkdH2v-9OL00bYeM--21" target="mbCBkdH2v-9OL00bYeM--17">
          <mxGeometry relative="1" as="geometry" />
        </mxCell>
        <mxCell id="mbCBkdH2v-9OL00bYeM--21" value="3rd Party API" style="shape=umlActor;verticalLabelPosition=bottom;verticalAlign=top;html=1;outlineConnect=0;" vertex="1" parent="1">
          <mxGeometry x="770" y="95" width="30" height="60" as="geometry" />
        </mxCell>
        <mxCell id="mbCBkdH2v-9OL00bYeM--44" style="edgeStyle=orthogonalEdgeStyle;rounded=0;orthogonalLoop=1;jettySize=auto;html=1;" edge="1" parent="1" source="mbCBkdH2v-9OL00bYeM--43">
          <mxGeometry relative="1" as="geometry">
            <mxPoint x="450" y="700" as="targetPoint" />
          </mxGeometry>
        </mxCell>
        <mxCell id="mbCBkdH2v-9OL00bYeM--47" style="edgeStyle=orthogonalEdgeStyle;rounded=0;orthogonalLoop=1;jettySize=auto;html=1;entryX=0;entryY=0.5;entryDx=0;entryDy=0;" edge="1" parent="1" source="mbCBkdH2v-9OL00bYeM--43" target="mbCBkdH2v-9OL00bYeM--14">
          <mxGeometry relative="1" as="geometry" />
        </mxCell>
        <mxCell id="mbCBkdH2v-9OL00bYeM--48" style="edgeStyle=orthogonalEdgeStyle;rounded=0;orthogonalLoop=1;jettySize=auto;html=1;" edge="1" parent="1" source="mbCBkdH2v-9OL00bYeM--43" target="mbCBkdH2v-9OL00bYeM--10">
          <mxGeometry relative="1" as="geometry">
            <Array as="points">
              <mxPoint x="440" y="700" />
            </Array>
          </mxGeometry>
        </mxCell>
        <mxCell id="mbCBkdH2v-9OL00bYeM--49" style="edgeStyle=orthogonalEdgeStyle;rounded=0;orthogonalLoop=1;jettySize=auto;html=1;" edge="1" parent="1" source="mbCBkdH2v-9OL00bYeM--43" target="mbCBkdH2v-9OL00bYeM--4">
          <mxGeometry relative="1" as="geometry" />
        </mxCell>
        <mxCell id="mbCBkdH2v-9OL00bYeM--58" style="edgeStyle=orthogonalEdgeStyle;rounded=0;orthogonalLoop=1;jettySize=auto;html=1;" edge="1" parent="1" source="mbCBkdH2v-9OL00bYeM--43" target="mbCBkdH2v-9OL00bYeM--56">
          <mxGeometry relative="1" as="geometry" />
        </mxCell>
        <mxCell id="mbCBkdH2v-9OL00bYeM--43" value="&lt;div&gt;Super Admin&lt;/div&gt;&lt;div&gt;&lt;br&gt;&lt;/div&gt;" style="shape=umlActor;verticalLabelPosition=bottom;verticalAlign=top;html=1;outlineConnect=0;" vertex="1" parent="1">
          <mxGeometry x="60" y="670" width="30" height="60" as="geometry" />
        </mxCell>
        <mxCell id="mbCBkdH2v-9OL00bYeM--50" style="edgeStyle=orthogonalEdgeStyle;rounded=0;orthogonalLoop=1;jettySize=auto;html=1;entryX=0.637;entryY=0.978;entryDx=0;entryDy=0;entryPerimeter=0;" edge="1" parent="1" source="mbCBkdH2v-9OL00bYeM--43" target="mbCBkdH2v-9OL00bYeM--9">
          <mxGeometry relative="1" as="geometry" />
        </mxCell>
        <mxCell id="mbCBkdH2v-9OL00bYeM--54" value="Admin Management" style="ellipse;whiteSpace=wrap;html=1;" vertex="1" parent="1">
          <mxGeometry x="480" y="670" width="100" height="60" as="geometry" />
        </mxCell>
        <mxCell id="mbCBkdH2v-9OL00bYeM--55" style="edgeStyle=orthogonalEdgeStyle;rounded=0;orthogonalLoop=1;jettySize=auto;html=1;entryX=0.237;entryY=0.878;entryDx=0;entryDy=0;entryPerimeter=0;" edge="1" parent="1" source="mbCBkdH2v-9OL00bYeM--43" target="mbCBkdH2v-9OL00bYeM--54">
          <mxGeometry relative="1" as="geometry" />
        </mxCell>
        <mxCell id="mbCBkdH2v-9OL00bYeM--56" value="Send Push Notifications" style="ellipse;whiteSpace=wrap;html=1;" vertex="1" parent="1">
          <mxGeometry x="310" y="620" width="100" height="60" as="geometry" />
        </mxCell>
      </root>
    </mxGraphModel>
  </diagram>
</mxfile>
